<mxfile host="app.diagrams.net" modified="2023-08-09T04:50:45.854Z" agent="Mozilla/5.0 (Windows NT 10.0; Win64; x64) AppleWebKit/537.36 (KHTML, like Gecko) Chrome/115.0.0.0 Safari/537.36" etag="OSKuZVc5hWYgJ1iebFSC" version="21.6.6" type="device">
  <diagram id="prtHgNgQTEPvFCAcTncT" name="Page-1">
    <mxGraphModel dx="1562" dy="830" grid="1" gridSize="10" guides="1" tooltips="1" connect="1" arrows="1" fold="1" page="1" pageScale="1" pageWidth="827" pageHeight="1169" math="0" shadow="0">
      <root>
        <mxCell id="0" />
        <mxCell id="1" parent="0" />
        <mxCell id="DRkb4xvNVB38JwlxhEwW-1" value="Управление пользователями" style="text;html=1;align=center;verticalAlign=middle;resizable=0;points=[];autosize=1;strokeColor=none;fillColor=none;" vertex="1" parent="1">
          <mxGeometry x="10" y="28" width="180" height="30" as="geometry" />
        </mxCell>
        <mxCell id="DRkb4xvNVB38JwlxhEwW-2" value="&lt;div style=&quot;text-align: left;&quot;&gt;Регистрация гостя&lt;font face=&quot;Söhne, ui-sans-serif, system-ui, -apple-system, Segoe UI, Roboto, Ubuntu, Cantarell, Noto Sans, sans-serif, Helvetica Neue, Arial, Apple Color Emoji, Segoe UI Emoji, Segoe UI Symbol, Noto Color Emoji&quot; color=&quot;#374151&quot;&gt;&lt;span style=&quot;font-size: 16px;&quot;&gt;&lt;br&gt;&lt;/span&gt;&lt;/font&gt;&lt;/div&gt;" style="whiteSpace=wrap;html=1;" vertex="1" parent="1">
          <mxGeometry x="20" y="90" width="120" height="70" as="geometry" />
        </mxCell>
        <mxCell id="DRkb4xvNVB38JwlxhEwW-3" value="&lt;div style=&quot;text-align: left;&quot;&gt;Аутентификация и авторизация&lt;font face=&quot;Söhne, ui-sans-serif, system-ui, -apple-system, Segoe UI, Roboto, Ubuntu, Cantarell, Noto Sans, sans-serif, Helvetica Neue, Arial, Apple Color Emoji, Segoe UI Emoji, Segoe UI Symbol, Noto Color Emoji&quot; color=&quot;#374151&quot;&gt;&lt;span style=&quot;font-size: 16px;&quot;&gt;&lt;br&gt;&lt;/span&gt;&lt;/font&gt;&lt;/div&gt;" style="whiteSpace=wrap;html=1;" vertex="1" parent="1">
          <mxGeometry x="230" y="90" width="120" height="70" as="geometry" />
        </mxCell>
        <mxCell id="DRkb4xvNVB38JwlxhEwW-4" value="&lt;div style=&quot;text-align: left;&quot;&gt;Управление профилем гостя&lt;font face=&quot;Söhne, ui-sans-serif, system-ui, -apple-system, Segoe UI, Roboto, Ubuntu, Cantarell, Noto Sans, sans-serif, Helvetica Neue, Arial, Apple Color Emoji, Segoe UI Emoji, Segoe UI Symbol, Noto Color Emoji&quot; color=&quot;#374151&quot;&gt;&lt;span style=&quot;font-size: 16px;&quot;&gt;&lt;br&gt;&lt;/span&gt;&lt;/font&gt;&lt;/div&gt;" style="whiteSpace=wrap;html=1;" vertex="1" parent="1">
          <mxGeometry x="430" y="90" width="120" height="70" as="geometry" />
        </mxCell>
        <mxCell id="DRkb4xvNVB38JwlxhEwW-5" value="&lt;div style=&quot;text-align: left;&quot;&gt;Управление данными сотрудников отеля&lt;font face=&quot;Söhne, ui-sans-serif, system-ui, -apple-system, Segoe UI, Roboto, Ubuntu, Cantarell, Noto Sans, sans-serif, Helvetica Neue, Arial, Apple Color Emoji, Segoe UI Emoji, Segoe UI Symbol, Noto Color Emoji&quot; color=&quot;#374151&quot;&gt;&lt;span style=&quot;font-size: 16px;&quot;&gt;&lt;br&gt;&lt;/span&gt;&lt;/font&gt;&lt;/div&gt;" style="whiteSpace=wrap;html=1;" vertex="1" parent="1">
          <mxGeometry x="630" y="90" width="130" height="70" as="geometry" />
        </mxCell>
        <mxCell id="DRkb4xvNVB38JwlxhEwW-6" value="Бронирование номеров" style="text;html=1;align=center;verticalAlign=middle;resizable=0;points=[];autosize=1;strokeColor=none;fillColor=none;" vertex="1" parent="1">
          <mxGeometry x="10" y="218" width="160" height="30" as="geometry" />
        </mxCell>
        <mxCell id="DRkb4xvNVB38JwlxhEwW-12" style="edgeStyle=orthogonalEdgeStyle;rounded=0;orthogonalLoop=1;jettySize=auto;html=1;entryX=0;entryY=0.5;entryDx=0;entryDy=0;" edge="1" parent="1" source="DRkb4xvNVB38JwlxhEwW-8" target="DRkb4xvNVB38JwlxhEwW-9">
          <mxGeometry relative="1" as="geometry" />
        </mxCell>
        <mxCell id="DRkb4xvNVB38JwlxhEwW-8" value="Просмотр доступных номеров и их характеристик" style="whiteSpace=wrap;html=1;" vertex="1" parent="1">
          <mxGeometry x="20" y="260" width="120" height="60" as="geometry" />
        </mxCell>
        <mxCell id="DRkb4xvNVB38JwlxhEwW-13" style="edgeStyle=orthogonalEdgeStyle;rounded=0;orthogonalLoop=1;jettySize=auto;html=1;exitX=1;exitY=0.5;exitDx=0;exitDy=0;entryX=0;entryY=0.5;entryDx=0;entryDy=0;" edge="1" parent="1" source="DRkb4xvNVB38JwlxhEwW-9" target="DRkb4xvNVB38JwlxhEwW-10">
          <mxGeometry relative="1" as="geometry" />
        </mxCell>
        <mxCell id="DRkb4xvNVB38JwlxhEwW-9" value="Выбор типа номера или конкретного номера" style="whiteSpace=wrap;html=1;" vertex="1" parent="1">
          <mxGeometry x="230" y="260" width="120" height="60" as="geometry" />
        </mxCell>
        <mxCell id="DRkb4xvNVB38JwlxhEwW-16" value="" style="edgeStyle=orthogonalEdgeStyle;rounded=0;orthogonalLoop=1;jettySize=auto;html=1;" edge="1" parent="1" source="DRkb4xvNVB38JwlxhEwW-10" target="DRkb4xvNVB38JwlxhEwW-11">
          <mxGeometry relative="1" as="geometry" />
        </mxCell>
        <mxCell id="DRkb4xvNVB38JwlxhEwW-10" value="Оформление бронирования" style="whiteSpace=wrap;html=1;" vertex="1" parent="1">
          <mxGeometry x="430" y="260" width="120" height="60" as="geometry" />
        </mxCell>
        <mxCell id="DRkb4xvNVB38JwlxhEwW-11" value="Оплата бронирования" style="whiteSpace=wrap;html=1;" vertex="1" parent="1">
          <mxGeometry x="630" y="260" width="120" height="60" as="geometry" />
        </mxCell>
        <mxCell id="DRkb4xvNVB38JwlxhEwW-17" value="Управление номерами и статусами" style="text;html=1;align=center;verticalAlign=middle;resizable=0;points=[];autosize=1;strokeColor=none;fillColor=none;" vertex="1" parent="1">
          <mxGeometry x="10" y="370" width="220" height="30" as="geometry" />
        </mxCell>
        <mxCell id="DRkb4xvNVB38JwlxhEwW-19" value="Отображение статуса номеров (забронирован, доступен, готов к уборке и т.д.)" style="rounded=0;whiteSpace=wrap;html=1;" vertex="1" parent="1">
          <mxGeometry x="20" y="440" width="130" height="80" as="geometry" />
        </mxCell>
        <mxCell id="DRkb4xvNVB38JwlxhEwW-20" value="Обновление статуса номеров при бронировании и освобождении" style="rounded=0;whiteSpace=wrap;html=1;" vertex="1" parent="1">
          <mxGeometry x="225" y="440" width="130" height="80" as="geometry" />
        </mxCell>
        <mxCell id="DRkb4xvNVB38JwlxhEwW-21" value="Отображение даты следующего заселения" style="rounded=0;whiteSpace=wrap;html=1;" vertex="1" parent="1">
          <mxGeometry x="430" y="440" width="130" height="80" as="geometry" />
        </mxCell>
        <mxCell id="DRkb4xvNVB38JwlxhEwW-22" value="Управление уборкой и обслуживанием" style="text;html=1;align=center;verticalAlign=middle;resizable=0;points=[];autosize=1;strokeColor=none;fillColor=none;" vertex="1" parent="1">
          <mxGeometry x="10" y="590" width="240" height="30" as="geometry" />
        </mxCell>
        <mxCell id="DRkb4xvNVB38JwlxhEwW-27" style="edgeStyle=orthogonalEdgeStyle;rounded=0;orthogonalLoop=1;jettySize=auto;html=1;entryX=0;entryY=0.5;entryDx=0;entryDy=0;" edge="1" parent="1" source="DRkb4xvNVB38JwlxhEwW-23" target="DRkb4xvNVB38JwlxhEwW-24">
          <mxGeometry relative="1" as="geometry" />
        </mxCell>
        <mxCell id="DRkb4xvNVB38JwlxhEwW-23" value="Задание приоритетов для уборки / обслуживания" style="whiteSpace=wrap;html=1;" vertex="1" parent="1">
          <mxGeometry x="25" y="620" width="120" height="100" as="geometry" />
        </mxCell>
        <mxCell id="DRkb4xvNVB38JwlxhEwW-29" style="edgeStyle=orthogonalEdgeStyle;rounded=0;orthogonalLoop=1;jettySize=auto;html=1;exitX=1;exitY=0.5;exitDx=0;exitDy=0;entryX=0;entryY=0.5;entryDx=0;entryDy=0;" edge="1" parent="1" source="DRkb4xvNVB38JwlxhEwW-24" target="DRkb4xvNVB38JwlxhEwW-25">
          <mxGeometry relative="1" as="geometry" />
        </mxCell>
        <mxCell id="DRkb4xvNVB38JwlxhEwW-24" value="Распределение задач уборки / обслуживания сотрудникам отеля" style="whiteSpace=wrap;html=1;" vertex="1" parent="1">
          <mxGeometry x="225" y="620" width="135" height="100" as="geometry" />
        </mxCell>
        <mxCell id="DRkb4xvNVB38JwlxhEwW-30" style="edgeStyle=orthogonalEdgeStyle;rounded=0;orthogonalLoop=1;jettySize=auto;html=1;entryX=0;entryY=0.5;entryDx=0;entryDy=0;" edge="1" parent="1" source="DRkb4xvNVB38JwlxhEwW-25" target="DRkb4xvNVB38JwlxhEwW-26">
          <mxGeometry relative="1" as="geometry" />
        </mxCell>
        <mxCell id="DRkb4xvNVB38JwlxhEwW-25" value="Регистрация информации о выплнении задач, в том числе с помощью устройств на тележках" style="whiteSpace=wrap;html=1;" vertex="1" parent="1">
          <mxGeometry x="420" y="625" width="140" height="91" as="geometry" />
        </mxCell>
        <mxCell id="DRkb4xvNVB38JwlxhEwW-26" value="Отслеживание состояния уборки" style="whiteSpace=wrap;html=1;" vertex="1" parent="1">
          <mxGeometry x="630" y="620" width="120" height="100" as="geometry" />
        </mxCell>
        <mxCell id="DRkb4xvNVB38JwlxhEwW-31" value="Управление правилами бронирования" style="text;html=1;align=center;verticalAlign=middle;resizable=0;points=[];autosize=1;strokeColor=none;fillColor=none;" vertex="1" parent="1">
          <mxGeometry x="20" y="770" width="240" height="30" as="geometry" />
        </mxCell>
        <mxCell id="DRkb4xvNVB38JwlxhEwW-32" value="Определение правил бронирования и отмены" style="rounded=0;whiteSpace=wrap;html=1;" vertex="1" parent="1">
          <mxGeometry x="30" y="830" width="170" height="70" as="geometry" />
        </mxCell>
        <mxCell id="DRkb4xvNVB38JwlxhEwW-33" value="Определение стоимости бронирования в зависимости от типа номера и дополнительных услуг" style="whiteSpace=wrap;html=1;" vertex="1" parent="1">
          <mxGeometry x="280" y="830" width="185" height="70" as="geometry" />
        </mxCell>
      </root>
    </mxGraphModel>
  </diagram>
</mxfile>
